{"glyphs":{"0":{"ha":556,"x_min":40,"x_max":515,"o":"m 40 364 q 78 581 40 489 q 179 715 115 672 q 281 751 228 751 q 432 664 363 751 q 515 375 515 557 q 478 156 515 244 q 385 26 442 67 q 275 -14 328 -14 q 99 111 172 -14 q 40 364 40 215 m 147 350 q 156 210 147 269 q 185 103 164 151 q 276 21 214 21 q 335 46 303 21 q 385 136 368 71 q 410 399 410 228 q 383 608 410 528 q 333 697 363 669 q 279 715 311 715 q 214 682 243 715 q 160 543 174 638 q 147 350 147 449 z "},"1":{"ha":556,"x_min":131,"x_max":419,"o":"m 131 664 l 308 751 l 326 751 l 326 131 q 328 83 326 100 q 332 53 329 65 q 353 29 338 39 q 419 19 372 19 l 419 0 l 143 0 l 143 19 q 210 29 193 19 q 231 50 226 39 q 238 131 238 61 l 238 526 l 238 546 l 238 561 q 232 631 238 613 q 218 656 231 643 q 194 664 207 664 q 139 647 175 664 l 131 664 z "},"2":{"ha":556,"x_min":24,"x_max":508,"o":"m 508 142 l 458 0 l 24 0 l 24 19 q 295 306 219 199 q 371 508 371 414 q 329 623 371 578 q 226 668 288 668 q 128 637 171 668 q 65 543 86 606 l 46 543 q 114 697 56 642 q 254 751 172 751 q 403 694 343 751 q 464 558 464 638 q 439 446 464 504 q 308 260 399 356 q 222 167 265 213 q 139 82 161 101 l 331 82 q 413 86 389 82 q 457 103 436 90 q 489 142 478 118 l 508 142 z "},"3":{"ha":556,"x_min":46,"x_max":464,"o":"m 57 596 q 135 710 86 669 q 256 751 185 751 q 392 693 342 751 q 426 603 426 653 q 325 436 426 521 q 429 360 394 408 q 455 306 446 336 q 464 243 464 276 q 403 78 464 150 q 174 -14 322 -14 q 71 6 101 -14 q 46 46 46 25 q 58 73 46 61 q 89 85 71 85 l 115 81 q 158 60 125 79 l 203 40 q 246 35 219 35 q 342 78 301 35 q 383 179 383 121 q 366 256 383 219 q 334 307 349 293 q 307 329 319 321 q 269 347 294 338 q 235 358 260 351 q 186 365 210 365 l 169 365 l 169 381 q 212 391 194 385 q 254 413 229 397 q 318 474 294 436 q 336 553 336 508 q 301 642 336 608 q 214 676 268 676 q 75 586 131 676 l 57 596 z "},"4":{"ha":556,"x_min":18,"x_max":517,"o":"m 517 271 l 517 194 l 418 194 l 418 0 l 329 0 l 329 194 l 18 194 l 18 264 l 358 751 l 418 751 l 418 271 l 517 271 m 329 271 l 329 636 l 69 271 l 329 271 z "},"5":{"ha":556,"x_min":53,"x_max":482,"o":"m 482 736 l 440 643 l 219 643 l 169 544 q 397 438 315 524 q 469 264 469 365 q 465 206 469 229 q 447 158 460 183 q 420 111 435 132 q 388 72 406 90 q 308 17 351 38 q 245 -6 278 3 q 181 -14 213 -14 q 83 8 114 -14 q 53 58 53 35 q 66 85 53 74 q 97 97 79 97 q 121 93 114 97 q 158 71 128 92 q 240 43 201 43 q 351 92 304 43 q 400 208 400 138 q 357 333 400 275 q 239 421 314 390 q 168 442 208 433 q 78 450 128 450 l 219 736 l 482 736 z "},"6":{"ha":556,"x_min":47,"x_max":513,"o":"m 497 751 l 497 731 q 433 721 463 728 q 381 703 403 714 q 325 668 346 685 q 292 636 313 658 q 219 542 249 594 q 169 411 190 489 q 326 464 247 464 q 457 404 401 464 q 513 247 513 344 q 457 79 513 156 q 279 -14 389 -14 q 151 36 204 -14 q 47 289 47 135 q 88 476 47 385 q 135 560 107 522 q 200 635 163 597 q 342 726 274 704 q 408 745 376 739 q 467 751 439 751 l 497 751 m 161 371 q 151 253 151 303 q 156 199 151 226 q 169 139 160 172 q 228 43 189 82 q 294 18 253 18 q 378 63 340 18 q 417 189 417 108 q 379 348 417 279 q 275 417 342 417 q 235 410 256 417 q 200 395 215 403 q 161 371 185 388 z "},"7":{"ha":556,"x_min":42,"x_max":507,"o":"m 113 736 l 507 736 l 507 715 l 261 -15 l 200 -15 l 419 647 l 218 647 q 131 632 157 647 q 57 556 83 608 l 42 561 l 113 736 z "},"8":{"ha":556,"x_min":68,"x_max":492,"o":"m 214 369 q 100 486 128 442 q 75 575 75 532 q 131 699 75 647 q 278 751 188 751 q 422 703 368 751 q 475 592 475 654 q 446 510 475 553 q 325 408 417 467 q 450 292 419 333 q 492 175 492 235 q 432 42 492 97 q 278 -14 372 -14 q 114 53 172 -14 q 68 168 68 106 q 100 264 68 218 q 214 369 129 310 m 299 429 q 351 481 331 458 q 381 521 372 503 q 397 597 397 554 q 366 688 397 656 q 279 719 335 719 q 190 688 225 719 q 154 613 154 657 q 169 556 154 583 q 208 503 183 529 l 299 429 m 239 350 q 172 266 193 313 q 150 169 150 219 q 188 58 150 100 q 286 17 228 17 q 381 49 344 17 q 415 131 415 83 q 394 200 415 168 q 239 350 356 257 z "},"9":{"ha":556,"x_min":44,"x_max":508,"o":"m 58 -15 l 58 4 q 125 13 94 4 q 190 38 156 21 q 306 147 250 68 q 386 324 363 225 q 232 268 304 268 q 99 328 154 268 q 44 486 44 389 q 99 658 44 583 q 274 751 167 751 q 429 675 364 751 q 508 447 508 581 q 449 222 508 328 q 281 42 390 115 q 90 -15 192 -15 l 58 -15 m 394 364 q 404 475 404 428 q 400 528 404 501 q 386 589 396 556 q 335 683 369 650 q 261 715 301 715 q 177 672 214 715 q 140 543 140 628 q 189 364 140 432 q 275 318 225 318 q 337 329 303 318 q 394 364 371 340 z "}," ":{"ha":694,"x_min":0,"x_max":0,"o":""},"!":{"ha":369,"x_min":124,"x_max":247,"o":"m 196 194 l 175 194 l 126 635 l 124 676 q 141 731 124 710 q 186 753 158 753 q 228 731 210 753 q 247 671 247 710 l 244 635 l 196 194 m 185 104 q 226 87 208 104 q 244 46 244 69 q 226 2 244 19 q 185 -15 208 -15 q 142 2 160 -15 q 125 46 125 19 q 142 87 125 69 q 185 104 158 104 z "},"\"":{"ha":453,"x_min":72,"x_max":381,"o":"m 313 436 l 283 594 l 271 660 l 269 686 q 285 736 269 719 q 325 753 301 753 q 364 737 347 753 q 381 694 381 721 q 369 594 381 653 l 339 436 l 313 436 m 114 436 l 85 597 q 72 686 72 663 q 87 737 72 721 q 125 753 101 753 q 165 736 149 753 q 181 694 181 719 q 167 596 181 669 l 138 436 l 114 436 z "},"#":{"ha":556,"x_min":19,"x_max":536,"o":"m 63 -15 l 114 231 l 19 231 l 19 276 l 121 276 l 158 463 l 19 463 l 19 506 l 169 506 l 219 753 l 264 753 l 214 506 l 397 506 l 450 753 l 494 753 l 443 506 l 536 506 l 536 463 l 436 463 l 397 276 l 536 276 l 536 231 l 388 231 l 338 -15 l 293 -15 l 343 231 l 158 231 l 108 -15 l 63 -15 m 167 276 l 351 276 l 390 463 l 206 463 l 167 276 z "},"$":{"ha":556,"x_min":58,"x_max":500,"o":"m 58 181 l 82 181 q 131 66 89 104 q 251 19 172 28 l 251 336 q 88 469 129 410 q 58 571 58 514 q 108 688 58 635 q 251 747 163 739 l 251 797 l 286 797 l 286 747 q 318 746 307 747 q 360 738 329 744 q 393 726 365 736 q 464 700 440 708 l 464 538 l 443 538 q 431 610 443 579 q 397 664 419 642 q 286 711 363 703 l 286 436 q 461 294 422 340 q 500 182 500 247 q 442 50 500 108 q 286 -15 389 -4 l 286 -85 l 251 -85 l 251 -15 q 213 -14 228 -15 q 163 -5 197 -12 q 116 6 128 3 q 58 28 104 10 l 58 181 m 251 458 l 251 711 q 170 677 197 706 q 143 606 143 649 q 166 533 143 568 q 251 458 189 499 m 286 19 q 324 28 311 25 q 347 40 336 32 q 395 88 376 58 q 414 156 414 118 q 392 223 414 192 q 286 314 371 254 l 286 19 z "},"%":{"ha":925,"x_min":39,"x_max":886,"o":"m 756 753 l 219 -31 l 171 -31 l 707 753 l 756 753 m 197 753 q 310 692 269 753 q 351 553 351 631 q 306 407 351 460 q 197 354 260 354 q 119 376 154 354 q 60 449 83 399 q 44 500 49 476 q 39 553 39 524 q 61 656 39 606 q 121 730 83 707 q 197 753 158 753 m 196 722 q 147 690 168 722 q 125 553 125 658 q 138 438 125 478 q 165 392 146 410 q 194 382 181 382 q 239 410 219 382 q 265 550 265 450 q 239 694 265 654 q 196 722 224 722 m 731 365 q 807 342 767 365 q 841 311 826 328 q 865 269 856 294 q 886 167 886 228 q 842 19 886 69 q 732 -31 793 -31 q 656 -6 694 -31 q 597 64 618 18 q 575 167 575 107 q 597 271 575 226 q 620 310 606 293 q 654 342 635 328 q 731 365 694 365 m 731 336 q 686 307 706 336 q 661 164 661 269 q 686 28 661 65 q 731 0 701 0 q 775 31 757 0 q 801 165 801 71 q 775 308 801 264 q 731 336 758 336 z "},"&":{"ha":864,"x_min":42,"x_max":831,"o":"m 567 474 l 794 474 l 794 453 q 726 433 750 453 q 655 329 701 414 q 547 168 608 244 q 634 90 594 113 q 710 67 674 67 q 774 86 747 67 q 810 147 800 106 l 831 132 q 767 19 813 56 q 663 -17 721 -17 q 572 8 619 -17 q 472 89 524 33 q 408 39 442 61 q 350 6 375 17 q 236 -17 292 -17 q 94 31 146 -17 q 42 144 42 78 q 88 274 42 208 q 265 411 133 339 q 232 498 238 474 q 224 540 226 522 q 221 574 221 557 q 290 714 221 665 q 411 753 342 753 q 516 715 475 753 q 557 619 557 676 q 518 520 557 564 q 378 425 479 476 q 522 200 450 294 q 618 392 618 313 q 603 433 618 415 q 567 453 589 451 l 567 474 m 360 460 q 460 532 428 492 q 493 624 493 572 q 468 688 493 663 q 410 714 443 714 q 338 680 363 714 q 314 615 314 646 q 322 559 314 589 q 360 460 331 529 m 443 119 q 344 264 367 226 q 314 317 332 282 q 283 375 296 351 q 185 292 218 336 q 153 194 153 247 q 190 92 153 138 q 292 49 229 49 q 358 62 328 49 q 443 119 388 75 z "},"(":{"ha":369,"x_min":46,"x_max":346,"o":"m 346 -218 l 346 -237 q 208 -142 260 -193 q 87 46 128 -60 q 46 267 46 151 q 129 572 46 433 q 346 771 213 711 l 346 749 q 235 647 276 711 q 171 486 193 582 q 155 383 160 431 q 150 281 150 335 q 167 84 150 174 q 202 -50 183 -6 q 256 -137 221 -94 q 346 -218 292 -181 z "},")":{"ha":369,"x_min":25,"x_max":325,"o":"m 25 749 l 25 771 q 163 675 104 733 q 230 592 201 638 q 282 489 258 546 q 325 268 325 381 q 242 -40 325 99 q 25 -237 158 -178 l 25 -218 q 135 -116 92 -178 q 199 45 178 -54 q 219 251 219 144 q 203 453 219 364 q 167 585 188 542 q 113 670 147 628 q 25 749 79 713 z "},"*":{"ha":556,"x_min":79,"x_max":478,"o":"m 268 567 q 264 602 268 582 q 253 642 260 622 q 235 714 235 696 q 247 756 235 742 q 281 771 260 771 q 310 756 297 771 q 322 715 322 742 q 308 647 322 688 q 290 567 294 607 q 344 613 319 586 q 399 665 382 656 q 436 675 417 675 q 464 664 454 675 q 478 635 475 654 q 460 599 478 617 q 369 568 442 585 l 301 547 q 330 535 313 540 q 369 525 347 529 q 455 494 435 513 q 475 456 475 476 q 464 426 475 439 q 451 418 457 421 q 436 415 446 415 q 399 426 421 415 q 346 478 382 438 q 290 528 321 504 q 303 460 290 497 q 322 372 322 394 q 308 336 322 351 q 281 321 299 321 q 247 335 261 321 q 233 374 233 349 q 247 436 233 400 l 263 486 l 268 528 q 239 506 254 518 q 213 481 229 497 q 154 425 171 435 q 124 415 138 415 q 93 428 107 415 q 79 456 79 440 q 90 485 79 471 q 124 508 101 499 l 190 525 q 222 533 217 532 q 256 547 238 539 q 233 556 242 553 q 186 569 210 564 q 103 594 115 585 q 79 638 79 613 q 92 664 79 656 q 119 676 103 676 q 156 666 138 676 q 208 619 175 656 q 268 567 235 586 z "},"+":{"ha":626,"x_min":19,"x_max":604,"o":"m 290 76 l 290 347 l 19 347 l 19 392 l 290 392 l 290 661 l 333 661 l 333 392 l 604 392 l 604 347 l 333 347 l 333 76 l 290 76 z "},",":{"ha":278,"x_min":60,"x_max":221,"o":"m 60 -186 l 60 -161 q 146 -103 117 -142 q 176 -22 176 -67 l 172 -4 q 168 -1 171 -3 q 164 0 165 0 l 139 -10 q 118 -15 129 -15 q 75 0 93 -15 q 60 44 60 18 q 79 89 60 69 q 131 108 99 108 q 193 77 165 108 q 221 -6 221 46 q 182 -108 221 -61 q 135 -151 164 -132 q 60 -186 106 -169 z "},"-":{"ha":369,"x_min":46,"x_max":325,"o":"m 46 290 l 325 290 l 325 208 l 46 208 l 46 290 z "},".":{"ha":1069,"x_min":3,"x_max":906,"o":"m 901 151 q 838 65 906 117 q 740 14 769 14 q 660 51 710 14 q 594 124 611 88 q 661 206 585 144 q 767 267 738 267 q 851 228 806 264 q 901 151 896 192 m 615 351 q 560 271 615 319 q 456 222 506 222 q 356 263 406 222 q 299 338 307 303 q 365 426 290 371 q 472 482 440 482 q 564 436 513 482 q 615 351 615 390 m 314 578 q 249 487 317 554 q 154 419 182 419 q 67 459 119 419 q 8 533 14 499 q 63 628 3 565 q 163 692 124 692 q 255 652 201 692 q 314 578 308 613 z "},"/":{"ha":308,"x_min":1,"x_max":311,"o":"m 311 771 l 46 -15 l 1 -15 l 268 771 l 311 771 z "},":":{"ha":308,"x_min":96,"x_max":217,"o":"m 157 513 q 199 495 181 513 q 217 453 217 478 q 199 409 217 426 q 157 392 182 392 q 114 408 133 392 q 97 453 97 428 q 114 494 97 475 q 157 513 131 513 m 156 106 q 199 88 181 106 q 210 72 203 83 q 217 46 217 60 q 197 3 217 21 q 156 -15 178 -15 q 114 3 131 -15 q 96 46 96 19 q 113 88 96 69 q 156 106 131 106 z "},";":{"ha":308,"x_min":76,"x_max":239,"o":"m 153 513 q 197 496 179 513 q 214 453 214 479 q 197 410 214 428 q 153 393 179 393 q 109 412 126 393 q 92 453 92 431 q 110 495 92 478 q 153 513 129 513 m 76 -186 l 76 -161 q 163 -105 132 -143 q 194 -22 194 -67 q 191 -9 194 -15 q 185 -1 188 -3 q 182 0 183 0 q 173 -2 178 -1 q 157 -9 168 -3 q 136 -15 146 -15 q 92 0 110 -15 q 76 44 76 18 q 97 89 76 69 q 147 108 117 108 q 210 76 182 108 q 239 -6 239 47 q 229 -58 239 -32 q 201 -107 219 -83 q 151 -151 183 -131 q 76 -186 119 -171 z "},"<":{"ha":626,"x_min":21,"x_max":604,"o":"m 21 383 l 604 636 l 604 589 l 103 369 l 604 150 l 604 101 l 21 357 l 21 383 z "},"=":{"ha":626,"x_min":19,"x_max":606,"o":"m 19 479 l 606 479 l 606 435 l 19 435 l 19 479 m 19 303 l 606 303 l 606 258 l 19 258 l 19 303 z "},">":{"ha":626,"x_min":19,"x_max":603,"o":"m 603 354 l 19 101 l 19 147 l 524 367 l 19 586 l 19 636 l 603 381 l 603 354 z "},"?":{"ha":493,"x_min":50,"x_max":449,"o":"m 247 174 l 225 174 q 242 286 225 242 q 297 411 254 335 q 339 506 329 476 q 346 536 344 521 q 347 572 347 551 q 311 681 347 640 q 222 722 275 722 q 147 699 174 722 q 119 651 119 676 q 136 601 119 632 q 153 558 153 571 q 140 524 153 538 q 110 511 128 511 q 69 534 88 511 q 50 597 50 557 q 103 705 50 657 q 246 753 157 753 q 410 688 357 753 q 449 581 449 640 q 431 503 449 547 q 364 403 414 460 q 268 275 285 311 q 247 174 247 236 m 239 107 q 281 88 263 107 q 300 46 300 69 q 282 4 300 22 q 239 -14 264 -14 q 197 3 215 -14 q 179 46 179 19 q 196 89 179 69 q 239 107 217 107 z "},"@":{"ha":1024,"x_min":53,"x_max":996,"o":"m 764 519 l 700 303 q 672 199 682 239 q 658 149 661 160 q 650 97 650 117 q 660 68 650 78 q 692 56 671 58 q 784 94 726 56 q 881 224 842 133 q 921 410 921 314 q 875 581 921 503 q 752 701 833 658 q 569 743 671 743 q 338 678 444 743 q 167 485 232 614 q 103 226 103 357 q 159 0 103 103 q 315 -155 215 -103 q 529 -207 415 -207 q 783 -131 667 -207 q 964 93 900 -56 l 996 93 q 819 -147 949 -54 q 525 -240 689 -240 q 288 -180 397 -240 q 115 -6 178 -119 q 53 242 53 108 q 119 507 53 383 q 308 701 186 631 q 565 771 431 771 q 771 725 682 771 q 906 591 860 679 q 953 400 953 503 q 943 301 953 346 q 908 203 933 256 q 798 63 868 110 q 653 17 728 17 q 592 36 614 17 q 571 92 571 56 q 575 135 571 107 q 581 171 579 163 q 452 44 499 72 q 367 17 406 17 q 299 50 331 17 q 269 142 269 86 q 318 317 269 219 q 456 478 367 414 q 568 524 518 524 q 626 506 601 524 q 661 447 650 488 l 679 508 l 764 519 m 574 497 q 492 454 533 497 q 386 285 431 396 q 363 215 372 247 q 354 158 354 182 q 374 103 354 124 q 417 82 393 82 q 483 106 444 82 q 555 178 518 129 q 611 279 592 228 q 642 419 642 368 q 622 476 642 456 q 574 497 601 497 z "},"C":{"ha":1729,"x_min":21,"x_max":1582,"o":"m 1582 65 q 1569 35 1575 44 q 1531 3 1553 3 q 1515 7 1524 3 q 1403 124 1478 26 q 1271 290 1301 256 q 1146 376 1194 376 q 1113 367 1128 376 q 1068 331 1086 350 q 1036 267 1036 297 q 1037 253 1036 257 q 1157 122 1038 249 q 1200 56 1208 68 q 1174 23 1183 31 q 1125 3 1164 15 q 1019 88 1101 -4 q 913 183 933 183 q 786 93 879 183 q 678 3 693 3 q 574 36 642 3 q 514 88 543 61 q 694 244 524 103 q 757 328 757 296 q 735 379 757 357 q 679 401 713 401 q 638 389 658 401 q 508 281 597 365 q 351 131 429 206 q 206 15 258 44 q 174 7 189 7 q 101 36 146 7 q 21 85 39 78 q 128 222 74 153 q 410 454 257 343 q 633 578 581 578 q 784 497 718 578 q 882 415 850 415 q 1011 524 888 415 q 1124 576 1071 576 q 1263 483 1175 576 q 1428 275 1324 418 q 1582 65 1563 90 z "},"E":{"ha":3,"x_min":-1094,"x_max":-768,"o":"m -778 907 q -871 810 -768 858 q -996 769 -956 769 q -1051 814 -1032 769 q -1065 868 -1065 846 q -989 926 -1065 901 q -919 994 -912 951 q -1010 1119 -926 1036 q -1094 1235 -1094 1201 q -1080 1266 -1094 1249 q -1050 1283 -1065 1283 q -989 1238 -1043 1283 q -867 1107 -917 1176 q -778 907 -796 1010 z "},"G":{"ha":1069,"x_min":65,"x_max":896,"o":"m 886 88 q 863 42 896 72 q 822 19 831 13 q 690 183 803 38 q 600 288 638 253 q 583 293 594 293 q 482 246 551 293 q 368 160 453 226 q 231 43 326 128 q 164 -6 197 18 q 100 76 126 39 q 65 138 65 125 l 242 274 q 357 354 269 288 q 458 453 458 432 q 417 529 458 472 q 289 707 293 699 q 338 740 288 713 q 376 756 367 756 q 404 724 389 756 q 483 600 429 672 q 592 469 544 528 q 711 315 682 360 q 782 218 740 269 q 886 88 833 153 z "},"K":{"ha":1146,"x_min":22,"x_max":994,"o":"m 994 219 q 982 183 994 200 q 950 167 969 167 q 811 296 903 167 q 603 425 719 425 q 553 410 586 425 q 519 379 519 394 q 549 346 519 367 q 615 307 582 326 q 724 189 688 229 q 833 47 833 65 q 789 0 833 0 q 683 64 757 0 q 540 185 565 167 q 371 250 447 250 q 236 135 301 250 q 149 19 171 19 q 81 51 132 19 q 22 110 22 88 q 140 292 22 157 q 235 408 213 374 q 368 513 257 443 q 564 592 496 592 q 783 503 674 592 q 936 329 864 438 q 994 219 994 242 z "},"N":{"ha":1646,"x_min":8,"x_max":1511,"o":"m 1511 210 q 1453 178 1476 172 q 1271 364 1401 189 q 1169 440 1214 440 q 1049 388 1136 440 q 876 281 963 335 q 760 228 789 228 q 643 328 725 228 q 518 428 561 428 q 329 353 431 428 q 117 189 222 271 q 50 232 92 189 q 8 293 8 275 q 93 388 8 308 q 281 538 186 475 q 465 617 400 617 q 589 515 497 617 q 736 414 681 414 q 857 468 774 414 q 1003 565 929 517 q 1132 608 1086 615 q 1328 440 1185 600 q 1511 210 1451 303 m 1085 164 q 969 63 1056 118 q 801 0 872 0 q 623 79 735 0 q 483 221 511 158 l 535 278 q 642 164 597 211 q 732 117 688 117 q 753 119 739 117 q 900 192 804 131 q 1021 254 996 254 q 1071 217 1047 254 q 1085 164 1094 179 z "},"P":{"ha":1292,"x_min":24,"x_max":1144,"o":"m 1144 247 q 1031 61 1144 126 q 810 8 938 8 q 664 91 763 8 q 465 258 565 174 q 232 88 425 244 q 118 19 149 19 q 71 63 86 47 q 24 138 24 111 q 165 274 24 168 q 307 408 307 379 q 246 503 307 446 q 86 678 147 596 q 112 710 83 682 q 146 735 140 739 q 308 582 221 672 q 460 419 367 522 q 568 319 499 376 q 775 165 654 249 q 801 158 786 158 q 902 202 847 158 q 969 301 957 246 q 901 418 978 338 q 743 574 888 432 q 619 718 644 671 q 614 738 614 729 q 634 762 614 756 q 664 764 654 768 q 724 722 683 757 q 926 535 833 619 q 1065 399 1026 443 q 1144 247 1144 308 z "},"R":{"ha":1319,"x_min":17,"x_max":1188,"o":"m 1181 318 q 1050 176 1171 249 q 829 104 929 104 q 726 186 793 104 q 604 339 665 263 q 472 422 529 422 q 314 342 418 422 q 93 167 203 254 q 45 201 74 167 q 17 257 17 235 q 68 344 17 275 q 225 496 136 438 q 492 578 349 578 q 649 435 531 578 q 833 293 768 293 q 963 338 903 293 q 1007 407 1022 383 q 811 640 949 501 q 736 731 749 703 q 764 763 754 753 q 807 796 796 796 q 833 750 815 774 q 924 653 861 714 q 1086 485 1038 542 q 1181 318 1188 368 m 703 36 q 693 21 697 28 q 638 -7 638 -6 q 538 139 590 38 q 500 169 522 169 q 385 106 456 169 q 278 0 331 53 q 235 31 249 19 q 192 83 192 65 q 294 193 257 157 q 458 303 408 303 q 618 157 525 303 q 703 36 681 60 z "},"[":{"ha":369,"x_min":92,"x_max":331,"o":"m 331 -219 l 92 -219 l 92 753 l 331 753 l 331 710 l 172 710 l 172 -178 l 331 -178 l 331 -219 z "},"\\":{"ha":308,"x_min":1,"x_max":311,"o":"m 46 771 l 311 -15 l 268 -15 l 1 771 l 46 771 z "},"]":{"ha":369,"x_min":42,"x_max":279,"o":"m 42 753 l 279 753 l 279 -221 l 42 -221 l 42 -178 l 197 -178 l 197 710 l 42 710 l 42 753 z "},"_":{"ha":3,"x_min":-994,"x_max":-171,"o":"m -171 -143 l -994 -143 l -994 -97 l -171 -97 l -171 -143 z "},"a":{"ha":1743,"x_min":132,"x_max":1583,"o":"m 1306 93 q 1233 21 1263 40 q 1188 6 1210 6 q 1131 29 1167 6 q 1096 75 1096 53 q 1131 131 1096 89 q 1208 193 1171 179 q 1272 169 1232 201 q 1311 108 1311 136 q 1306 93 1311 99 m 1576 75 q 1555 35 1583 64 q 1513 14 1526 6 q 1331 260 1482 32 q 1244 351 1268 354 q 1122 251 1197 344 q 997 85 1061 169 q 901 8 933 1 q 745 176 838 22 q 615 336 653 329 q 476 240 574 343 q 268 8 372 124 q 192 88 253 8 q 132 161 153 139 q 218 272 175 217 q 406 481 325 404 q 586 593 524 593 q 735 424 661 593 q 836 256 810 256 q 943 343 872 256 q 1067 506 1004 424 q 1169 594 1138 594 q 1313 468 1213 594 q 1482 226 1385 376 q 1576 75 1540 135 z "},"b":{"ha":1007,"x_min":64,"x_max":856,"o":"m 796 488 q 596 710 696 599 q 483 654 521 675 q 371 549 371 590 q 486 403 371 526 q 700 181 593 292 q 817 44 817 58 q 800 17 815 25 q 763 8 785 8 q 649 117 751 8 q 517 225 546 225 q 326 110 469 221 q 192 -1 279 74 q 128 40 149 25 q 64 114 64 88 q 218 258 64 153 q 372 388 372 364 q 271 507 372 406 q 176 635 169 608 q 308 757 188 674 q 531 850 444 850 q 571 843 550 850 q 708 725 622 822 q 856 528 785 639 q 828 507 836 514 q 796 488 799 485 z "},"c":{"ha":1528,"x_min":6,"x_max":1303,"o":"m 1299 251 q 1154 73 1254 140 q 933 6 1054 6 q 725 108 850 6 q 600 260 600 210 q 625 303 600 281 q 656 317 640 317 q 671 313 663 317 q 765 225 718 268 q 893 147 836 160 q 1007 193 929 139 q 1126 324 1093 253 q 1131 344 1131 335 q 1040 483 1131 392 q 871 642 1032 493 q 775 758 778 728 q 797 793 775 776 q 839 810 819 810 q 943 726 908 756 q 1067 604 1049 638 q 1185 488 1146 531 q 1303 279 1303 356 q 1299 251 1303 260 m 954 340 q 935 324 942 329 q 892 307 911 307 q 796 383 876 307 q 678 460 715 460 q 476 321 628 460 q 136 -4 306 158 q 85 31 103 17 q 17 106 31 72 q 136 264 6 132 q 411 504 272 400 q 646 628 576 628 q 824 506 694 628 q 954 340 954 385 z "},"d":{"ha":1208,"x_min":19,"x_max":1069,"o":"m 617 529 q 588 472 603 492 q 458 399 542 411 q 382 440 415 392 q 357 499 357 478 q 435 592 357 539 q 513 636 460 608 q 585 588 536 636 q 617 529 617 556 m 1056 497 q 924 329 1069 483 q 750 160 785 183 q 624 78 663 101 q 465 6 511 10 q 360 61 406 25 q 203 231 283 122 q 69 442 111 353 q 21 567 54 474 q 57 613 19 574 q 97 651 69 625 q 190 486 143 568 q 308 304 256 372 q 415 217 375 217 q 618 329 489 217 q 825 539 714 413 q 922 653 874 596 q 1004 575 949 653 q 1056 497 1022 550 z "},"e":{"ha":701,"x_min":10,"x_max":549,"o":"m 549 64 q 507 22 549 46 q 488 13 500 19 q 371 89 443 21 q 251 197 274 182 q 94 324 161 261 q 10 433 10 403 q 136 569 10 481 q 326 658 263 658 q 406 600 358 658 q 443 518 453 542 q 368 463 438 503 q 236 361 226 379 q 336 261 253 329 q 477 145 406 204 q 549 64 549 86 z "},"g":{"ha":1375,"x_min":29,"x_max":1221,"o":"m 1211 303 q 1069 125 1115 172 q 882 17 965 17 q 763 111 835 17 q 636 286 699 199 q 514 372 563 379 q 354 250 446 363 q 164 13 258 131 q 90 82 151 13 q 29 161 29 151 q 103 310 29 192 q 268 531 183 439 q 435 643 372 643 q 581 535 481 643 q 749 331 640 469 q 847 215 836 218 q 942 267 878 207 q 1006 372 1006 326 q 921 503 1006 396 q 764 688 860 579 q 679 782 681 782 q 728 831 688 797 q 767 863 740 842 q 911 706 796 839 q 1019 578 949 663 q 1211 303 1221 317 m 626 118 q 563 51 575 64 q 501 0 544 33 q 444 31 463 18 q 394 106 389 69 q 443 182 400 138 q 515 226 486 226 q 579 172 529 226 q 626 118 594 154 z "},"h":{"ha":1569,"x_min":-10,"x_max":1407,"o":"m 1397 319 q 1231 131 1385 254 q 993 7 1076 7 q 968 11 979 7 q 803 153 913 40 q 729 210 756 201 q 592 113 710 217 q 418 3 467 3 q 174 163 328 42 q 3 336 14 288 q 162 530 -10 390 q 417 657 333 669 q 575 543 468 650 q 708 447 676 442 q 842 546 731 451 q 1014 665 961 647 q 1240 526 1072 685 q 1397 319 1407 367 m 1207 383 q 1148 447 1207 400 q 1075 489 1089 494 q 938 390 1033 469 q 833 285 843 311 q 883 211 825 264 q 958 158 942 158 q 1129 281 990 158 q 1207 383 1207 349 m 597 390 q 539 465 597 414 q 492 489 507 494 q 316 387 422 467 q 217 276 210 307 q 283 203 225 243 q 356 168 340 163 q 489 261 394 183 q 597 390 597 350 z "},"i":{"ha":3,"x_min":-1029,"x_max":-786,"o":"m -868 1007 q -816 974 -846 1007 q -786 917 -786 942 q -792 901 -786 907 q -852 846 -832 860 q -931 813 -872 832 q -992 847 -954 804 q -1015 910 -1029 890 q -926 993 -972 969 q -868 1007 -900 1007 z "},"j":{"ha":1257,"x_min":22,"x_max":1104,"o":"m 1104 186 q 940 61 1014 108 q 815 8 860 8 q 657 145 775 8 q 526 276 539 282 q 304 131 475 253 q 136 7 219 68 q 54 90 94 39 q 22 135 42 107 q 367 414 22 179 q 451 472 408 443 q 619 583 563 549 q 743 643 718 643 q 910 467 772 643 q 1104 186 1049 292 m 932 279 q 862 376 932 293 q 785 454 792 458 q 673 385 724 422 q 622 336 622 347 q 692 243 622 326 q 763 161 714 215 q 847 211 819 194 q 932 279 932 264 z "},"k":{"ha":1153,"x_min":36,"x_max":1056,"o":"m 1039 464 q 917 331 1056 444 q 726 188 797 233 q 576 85 672 153 q 444 22 489 22 q 374 69 424 22 q 336 129 324 117 q 449 229 382 179 q 608 346 528 288 q 782 480 676 397 q 929 586 888 563 q 943 590 936 590 q 996 539 967 590 q 1039 464 1017 501 m 718 583 q 543 453 613 507 q 378 321 456 386 q 240 199 275 229 q 135 139 183 150 q 76 182 117 135 q 36 250 36 229 q 104 328 36 272 q 275 458 189 393 q 424 593 300 489 q 590 708 561 708 q 657 646 596 708 q 718 583 676 625 z "},"l":{"ha":1736,"x_min":8,"x_max":1572,"o":"m 1572 58 q 1538 19 1572 46 q 1519 6 1532 15 q 1424 113 1471 58 q 1283 364 1299 340 q 1118 504 1192 504 q 964 431 1040 504 q 819 304 851 322 q 753 356 793 289 q 714 446 714 424 q 861 599 714 490 q 1058 707 1008 707 q 1199 628 1111 707 q 1352 449 1286 549 q 1446 306 1418 350 q 1532 158 1494 228 q 1572 58 1569 88 m 1181 264 q 1040 97 1181 201 q 899 6 994 63 q 710 86 785 6 q 606 239 708 88 q 488 321 550 321 q 326 242 403 321 q 215 92 313 228 q 119 11 157 11 q 38 69 75 11 q 8 135 8 115 q 71 253 8 156 q 225 443 144 367 q 418 544 332 544 q 463 538 438 544 q 579 429 525 518 q 668 279 624 354 q 796 203 725 203 q 929 251 872 203 q 1089 378 1074 375 q 1147 335 1113 382 q 1181 264 1181 289 z "},"m":{"ha":1236,"x_min":17,"x_max":1090,"o":"m 1090 497 q 947 328 1090 479 q 778 160 804 178 q 651 78 690 101 q 493 6 539 10 q 388 61 433 25 q 231 231 311 122 q 83 444 131 365 q 21 574 43 513 q 71 633 17 588 q 115 658 100 658 q 125 651 122 658 q 265 406 158 560 q 450 224 390 224 q 651 335 524 224 q 854 540 746 415 q 950 653 901 596 q 1033 582 976 653 q 1090 497 1090 511 z "},"n":{"ha":1118,"x_min":7,"x_max":982,"o":"m 971 71 q 935 21 982 54 q 915 19 925 19 q 926 13 921 15 q 814 119 886 13 q 682 321 747 219 q 544 429 601 429 q 444 367 513 429 q 296 210 386 313 q 124 7 272 183 q 70 75 110 15 q 18 160 31 135 q 90 311 7 183 q 272 538 172 439 q 479 658 394 658 q 506 656 489 658 q 713 493 599 633 q 883 233 794 392 q 971 71 926 151 m 640 122 q 573 63 635 113 q 507 13 511 13 q 441 44 481 13 q 401 86 401 75 q 439 164 401 117 q 547 224 486 224 q 596 174 551 224 q 640 122 610 157 z "},"o":{"ha":931,"x_min":18,"x_max":771,"o":"m 771 60 q 747 28 771 49 q 711 7 724 7 q 594 111 675 7 q 458 303 526 207 q 369 399 386 404 q 219 278 357 394 q 135 229 163 229 q 72 278 122 229 q 18 354 18 331 q 22 364 18 360 q 163 503 92 433 q 306 614 229 563 q 325 619 315 619 q 458 472 367 619 q 549 338 521 372 q 738 100 643 218 q 771 60 751 83 z "},"p":{"ha":1368,"x_min":22,"x_max":1221,"o":"m 1211 296 q 1082 114 1182 204 q 882 17 974 17 q 763 114 835 17 q 640 294 701 204 q 528 393 569 393 q 363 274 457 393 q 164 13 263 143 q 86 75 150 13 q 22 147 22 138 q 101 290 22 178 q 278 500 188 413 q 456 608 390 608 q 624 479 517 608 q 840 215 731 350 q 950 271 888 215 q 1013 372 1013 326 q 931 499 1013 397 q 776 678 871 574 q 693 768 694 768 q 731 810 708 792 q 767 828 753 828 q 911 696 803 828 q 1013 564 946 653 q 1139 414 1071 488 q 1211 296 1221 325 z "},"r":{"ha":1028,"x_min":49,"x_max":867,"o":"m 804 272 q 626 494 767 296 q 546 578 568 578 q 414 514 497 578 q 268 388 368 479 q 161 300 185 311 q 96 342 143 290 q 51 414 49 393 q 232 635 64 499 q 492 772 400 772 q 615 664 522 772 q 778 453 688 581 q 867 317 860 339 q 844 289 853 297 q 804 272 819 263 m 850 56 q 809 32 829 42 q 778 28 789 22 q 636 189 750 40 q 565 251 588 251 q 446 185 518 251 q 292 36 368 110 q 238 65 272 36 q 154 139 196 101 q 283 296 218 217 q 507 433 440 433 q 625 346 558 433 q 850 56 818 93 z "},"s":{"ha":1014,"x_min":46,"x_max":871,"o":"m 863 333 q 736 144 847 263 q 501 7 607 7 q 258 117 426 7 q 58 310 83 231 q 200 501 46 350 q 453 660 363 660 q 699 517 528 660 q 863 333 871 375 m 681 389 q 603 463 647 424 q 531 513 543 514 q 374 396 489 507 q 267 253 258 285 q 323 196 272 232 q 419 149 374 160 q 567 262 447 142 q 681 389 688 382 z "},"t":{"ha":1132,"x_min":18,"x_max":971,"o":"m 971 57 q 932 14 971 40 q 929 19 931 17 q 940 13 935 15 q 821 119 900 13 q 679 321 750 219 q 550 429 597 429 q 456 367 521 429 q 310 210 401 315 q 138 7 282 178 q 69 74 117 18 q 18 153 18 133 q 103 303 18 181 q 299 535 201 443 q 519 656 428 656 q 693 511 578 656 q 882 233 786 396 q 971 57 971 83 z "},"u":{"ha":3,"x_min":-464,"x_max":-242,"o":"m -344 -69 q -284 -106 -326 -64 q -249 -167 -242 -149 q -287 -221 -260 -197 q -349 -261 -307 -237 q -417 -233 -369 -274 q -456 -161 -464 -193 q -414 -105 -447 -131 q -344 -69 -381 -79 z "},"w":{"ha":1618,"x_min":14,"x_max":1471,"o":"m 1464 53 q 1443 18 1471 44 q 1401 0 1415 -8 q 1233 265 1371 18 q 1151 363 1176 368 q 1019 258 1103 353 q 885 90 996 232 q 794 1 815 1 q 686 86 754 1 q 574 246 667 111 q 490 342 513 336 q 381 264 464 349 q 233 100 338 221 q 143 8 154 8 q 106 44 132 8 q 14 154 36 139 q 107 263 60 208 q 304 463 208 376 q 475 572 425 572 q 568 489 521 572 q 647 324 606 408 q 719 233 688 240 q 822 313 753 226 q 958 486 890 400 q 1103 581 1043 581 q 1207 465 1129 581 q 1353 231 1246 408 q 1464 53 1438 89 z "},"y":{"ha":1611,"x_min":7,"x_max":1476,"o":"m 1208 93 q 1136 21 1165 40 q 1090 6 1113 6 q 1034 29 1069 6 q 999 75 999 53 q 1033 131 999 89 q 1111 193 1074 179 q 1174 169 1135 201 q 1214 108 1214 136 q 1208 93 1214 99 m 1468 67 q 1446 24 1476 57 q 1401 0 1415 -8 q 1300 117 1367 21 q 1190 283 1244 200 q 1125 361 1136 365 q 1007 249 1081 340 q 888 88 947 168 q 804 8 828 8 q 701 106 765 8 q 592 282 649 193 q 504 357 536 371 q 381 251 468 342 q 232 92 375 246 q 143 8 154 8 q 104 44 133 8 q 7 154 29 139 q 103 275 54 214 q 301 496 218 415 q 475 607 424 614 q 585 506 528 600 q 676 331 629 419 q 754 242 724 242 q 843 332 783 242 q 954 503 899 417 q 1074 594 1022 594 q 1210 488 1129 594 q 1350 264 1265 414 q 1468 67 1440 104 m 465 208 q 483 215 471 215 q 543 185 511 215 q 575 128 575 154 q 569 110 575 117 q 519 56 539 72 q 472 21 494 38 q 443 10 457 10 q 360 90 399 10 q 413 167 347 117 q 465 208 463 204 z "},"{":{"ha":533,"x_min":153,"x_max":457,"o":"m 457 -221 l 457 -240 q 374 -215 411 -233 q 308 -165 336 -197 q 253 -31 253 -106 q 255 15 253 1 q 264 60 257 29 q 278 140 278 110 q 244 213 278 178 q 153 254 210 249 l 153 278 q 244 319 211 285 q 270 354 263 339 q 278 392 278 369 q 264 472 278 422 q 253 564 253 528 q 310 699 253 638 q 457 771 368 761 l 457 753 q 364 703 392 736 q 342 667 350 689 q 333 626 333 646 q 346 542 333 596 q 355 497 351 518 q 358 453 358 476 q 318 347 358 397 q 269 301 296 319 q 197 268 242 282 q 317 186 276 239 q 358 79 358 133 q 346 -10 358 43 q 333 -94 333 -64 q 364 -169 333 -137 q 457 -221 390 -204 z "},"}":{"ha":533,"x_min":96,"x_max":399,"o":"m 96 753 l 96 771 q 244 699 188 760 q 300 563 300 638 q 299 518 300 532 q 288 472 297 504 q 275 392 275 419 q 308 318 275 353 q 399 278 342 283 l 399 254 q 309 215 343 249 q 275 140 275 181 q 288 60 275 113 q 300 -31 300 7 q 244 -165 300 -104 q 96 -240 189 -225 l 96 -221 q 190 -169 161 -204 q 219 -94 219 -133 q 218 -69 219 -81 q 207 -10 211 -32 q 193 78 193 40 q 203 131 193 106 q 233 186 213 157 q 354 264 276 238 q 235 347 276 293 q 193 453 193 400 q 207 542 193 494 l 219 626 q 190 701 219 665 q 96 753 160 736 z "}}}
